# xmcd
#
# Track frame offsets:
#       150
#       9024
#       21234
#       31291
#       45105
#       55285
#       64261
#       72648
#       86350
#       104437
#       113885
#       124714
#       133261
#       145713
#
# Disc length: 2064 seconds
#
# Revision: 1
# Processed by: cddbd v1.5.1PL0 Copyright (c) Steve Scherf et al.
# Submitted via: MusiCat 1.1
#
DISCID=ba080e0e
DTITLE=Elvis Presley - Tribute
DYEAR=1900
DGENRE=
TTITLE0=Blue suede shoes
TTITLE1=Love me tender
TTITLE2=Heartbreak hotel
TTITLE3=It's now or never
TTITLE4=Hound dog
TTITLE5=All shook up
TTITLE6=(Let me be your) Teddy bear
TTITLE7=Are you lonesome tonigth?
TTITLE8=Suspicious minds
TTITLE9=Don't be cruel
TTITLE10=JKalhouse rock
TTITLE11=Surrender
TTITLE12=Promised land
TTITLE13=Return to sender
EXTD=\n\n
EXTT0=
EXTT1=
EXTT2=
EXTT3=
EXTT4=
EXTT5=
EXTT6=
EXTT7=
EXTT8=
EXTT9=
EXTT10=
EXTT11=
EXTT12=
EXTT13=
PLAYORDER=
